<svg xmlns="http://www.w3.org/2000/svg" xmlns:xlink="http://www.w3.org/1999/xlink" width="1080" zoomAndPan="magnify" viewBox="0 0 810 809.999993" height="1080" preserveAspectRatio="xMidYMid meet" version="1.0"><defs><clipPath id="9a355b641f"><path d="M 306.199219 347.316406 L 470.90625 347.316406 L 470.90625 512.023438 L 306.199219 512.023438 Z M 306.199219 347.316406 " clip-rule="nonzero"/></clipPath><clipPath id="67d5ac32f7"><path d="M 388.554688 347.316406 C 343.070312 347.316406 306.199219 384.1875 306.199219 429.671875 C 306.199219 475.152344 343.070312 512.023438 388.554688 512.023438 C 434.035156 512.023438 470.90625 475.152344 470.90625 429.671875 C 470.90625 384.1875 434.035156 347.316406 388.554688 347.316406 Z M 388.554688 347.316406 " clip-rule="nonzero"/></clipPath><clipPath id="0ba0baae51"><path d="M 151.933594 197.992188 L 185.945312 197.992188 L 185.945312 232.003906 L 151.933594 232.003906 Z M 151.933594 197.992188 " clip-rule="nonzero"/></clipPath><clipPath id="64d8c0e27f"><path d="M 168.941406 197.992188 C 159.546875 197.992188 151.933594 205.605469 151.933594 215 C 151.933594 224.390625 159.546875 232.003906 168.941406 232.003906 C 178.332031 232.003906 185.945312 224.390625 185.945312 215 C 185.945312 205.605469 178.332031 197.992188 168.941406 197.992188 Z M 168.941406 197.992188 " clip-rule="nonzero"/></clipPath><clipPath id="39e7f15826"><path d="M 147 197 L 172 197 L 172 243 L 147 243 Z M 147 197 " clip-rule="nonzero"/></clipPath><clipPath id="bf4888eead"><path d="M 171.480469 198.320312 L 157.898438 242.269531 L 141.960938 237.34375 L 155.542969 193.394531 Z M 171.480469 198.320312 " clip-rule="nonzero"/></clipPath><clipPath id="09a73c04b7"><path d="M 148.753906 215.367188 C 152.503906 203.234375 162.679688 195.601562 171.480469 198.320312 L 157.898438 242.265625 C 149.097656 239.542969 145.003906 227.503906 148.753906 215.367188 Z M 148.753906 215.367188 " clip-rule="nonzero"/></clipPath></defs><g clip-path="url(#9a355b641f)"><g clip-path="url(#67d5ac32f7)"><path fill="#29d5e2" d="M 306.199219 347.316406 L 470.90625 347.316406 L 470.90625 512.023438 L 306.199219 512.023438 Z M 306.199219 347.316406 " fill-opacity="1" fill-rule="nonzero"/></g></g><path stroke-linecap="butt" transform="matrix(0.53033, -0.53033, 0.53033, 0.53033, 217.070558, 455.411493)" fill="none" stroke-linejoin="miter" d="M 0.00102875 4.498948 L 358.401064 4.498948 " stroke="#ffc9ff" stroke-width="9" stroke-opacity="1" stroke-miterlimit="4"/><path stroke-linecap="butt" transform="matrix(0.53033, -0.53033, 0.53033, 0.53033, 208.16844, 411.930479)" fill="none" stroke-linejoin="miter" d="M 0.000301981 4.499249 L 293.199196 4.499249 " stroke="#ffc9ff" stroke-width="9" stroke-opacity="1" stroke-miterlimit="4"/><path stroke-linecap="butt" transform="matrix(0.53033, -0.53033, 0.53033, 0.53033, 198.835409, 368.503127)" fill="none" stroke-linejoin="miter" d="M -0.00023682 4.501673 L 228.90718 4.49799 " stroke="#ffc9ff" stroke-width="9" stroke-opacity="1" stroke-miterlimit="4"/><path stroke-linecap="butt" transform="matrix(0.53033, -0.53033, 0.53033, 0.53033, 188.469661, 323.358052)" fill="none" stroke-linejoin="miter" d="M -0.00210669 4.500829 L 163.324836 4.500829 " stroke="#ffc9ff" stroke-width="9" stroke-opacity="1" stroke-miterlimit="4"/><path stroke-linecap="butt" transform="matrix(0.53033, -0.53033, 0.53033, 0.53033, 178.620508, 278.702584)" fill="none" stroke-linejoin="miter" d="M 0.0000416863 4.501503 L 97.69495 4.49782 " stroke="#ffc9ff" stroke-width="9" stroke-opacity="1" stroke-miterlimit="4"/><path stroke-linecap="butt" transform="matrix(0.731506, 0.165526, -0.165526, 0.731506, 169.686264, 211.707197)" fill="none" stroke-linejoin="miter" d="M 0.000315149 4.501332 L 368.396178 4.497804 " stroke="#ffc9ff" stroke-width="9" stroke-opacity="1" stroke-miterlimit="4"/><path stroke-linecap="butt" transform="matrix(0.151927, 0.734451, -0.734451, 0.151927, 172.243281, 214.322119)" fill="none" stroke-linejoin="miter" d="M -0.00266523 4.500473 L 377.229826 4.499693 " stroke="#ffc9ff" stroke-width="9" stroke-opacity="1" stroke-miterlimit="4"/><g clip-path="url(#0ba0baae51)"><g clip-path="url(#64d8c0e27f)"><path fill="#ee03ee" d="M 151.933594 197.992188 L 185.945312 197.992188 L 185.945312 232.003906 L 151.933594 232.003906 Z M 151.933594 197.992188 " fill-opacity="1" fill-rule="nonzero"/></g></g><g clip-path="url(#39e7f15826)"><g clip-path="url(#bf4888eead)"><g clip-path="url(#09a73c04b7)"><path fill="#ee03ee" d="M 171.480469 198.320312 L 157.898438 242.269531 L 141.960938 237.34375 L 155.542969 193.394531 Z M 171.480469 198.320312 " fill-opacity="1" fill-rule="nonzero"/></g></g></g></svg>