<svg xmlns="http://www.w3.org/2000/svg" xmlns:xlink="http://www.w3.org/1999/xlink" width="1080" zoomAndPan="magnify" viewBox="0 0 810 809.999993" height="1080" preserveAspectRatio="xMidYMid meet" version="1.0"><defs><clipPath id="822be77d9d"><path d="M 322.644531 322.644531 L 487.355469 322.644531 L 487.355469 487.355469 L 322.644531 487.355469 Z M 322.644531 322.644531 " clip-rule="nonzero"/></clipPath><clipPath id="a6b6b8b6f5"><path d="M 405 322.644531 C 359.515625 322.644531 322.644531 359.515625 322.644531 405 C 322.644531 450.484375 359.515625 487.355469 405 487.355469 C 450.484375 487.355469 487.355469 450.484375 487.355469 405 C 487.355469 359.515625 450.484375 322.644531 405 322.644531 Z M 405 322.644531 " clip-rule="nonzero"/></clipPath></defs><path stroke-linecap="butt" transform="matrix(0, -0.75, 0.75, 0, 401.620646, 577.026087)" fill="none" stroke-linejoin="miter" d="M -0.00167571 4.500597 L 812.98274 4.500597 " stroke="#ee03ee" stroke-width="9" stroke-opacity="1" stroke-miterlimit="4"/><path stroke-linecap="butt" transform="matrix(-0.75, 0, 0, -0.75, 809.999963, 376.698752)" fill="none" stroke-linejoin="miter" d="M -0.0000496667 4.499378 L 1080.000005 4.499378 " stroke="#baf6fa" stroke-width="9" stroke-opacity="1" stroke-miterlimit="4"/><path stroke-linecap="butt" transform="matrix(-0.75, 0, 0, -0.75, 809.999963, 445.569142)" fill="none" stroke-linejoin="miter" d="M -0.0000496667 4.498439 L 1080.000005 4.498439 " stroke="#baf6fa" stroke-width="9" stroke-opacity="1" stroke-miterlimit="4"/><g clip-path="url(#822be77d9d)"><g clip-path="url(#a6b6b8b6f5)"><path fill="#29d5e2" d="M 322.644531 322.644531 L 487.355469 322.644531 L 487.355469 487.355469 L 322.644531 487.355469 Z M 322.644531 322.644531 " fill-opacity="1" fill-rule="nonzero"/></g></g></svg>