<svg xmlns="http://www.w3.org/2000/svg" xmlns:xlink="http://www.w3.org/1999/xlink" width="1080" zoomAndPan="magnify" viewBox="0 0 810 809.999993" height="1080" preserveAspectRatio="xMidYMid meet" version="1.0"><defs><clipPath id="011436efaf"><path d="M 306.199219 347.316406 L 470.90625 347.316406 L 470.90625 512.023438 L 306.199219 512.023438 Z M 306.199219 347.316406 " clip-rule="nonzero"/></clipPath><clipPath id="c68cd84947"><path d="M 388.554688 347.316406 C 343.070312 347.316406 306.199219 384.1875 306.199219 429.671875 C 306.199219 475.152344 343.070312 512.023438 388.554688 512.023438 C 434.035156 512.023438 470.90625 475.152344 470.90625 429.671875 C 470.90625 384.1875 434.035156 347.316406 388.554688 347.316406 Z M 388.554688 347.316406 " clip-rule="nonzero"/></clipPath><clipPath id="09c8baeab2"><path d="M 316.96875 337.125 L 467.273438 337.125 L 467.273438 387.21875 L 316.96875 387.21875 Z M 316.96875 337.125 " clip-rule="nonzero"/></clipPath><clipPath id="e2ea82a19c"><path d="M 0 207.097656 L 810 207.097656 L 810 275.003906 L 0 275.003906 Z M 0 207.097656 " clip-rule="nonzero"/></clipPath><clipPath id="419e322581"><path d="M 325.058594 241.050781 L 332.667969 241.050781 L 332.667969 387.21875 L 325.058594 387.21875 Z M 325.058594 241.050781 " clip-rule="nonzero"/></clipPath><clipPath id="4ee904fec5"><path d="M 278.488281 116.226562 L 379.234375 116.226562 L 379.234375 337 L 278.488281 337 Z M 278.488281 116.226562 " clip-rule="nonzero"/></clipPath><clipPath id="a4ba76bc2c"><path d="M 316.738281 116.226562 L 340.984375 116.226562 C 351.128906 116.226562 360.859375 120.257812 368.03125 127.429688 C 375.203125 134.605469 379.234375 144.332031 379.234375 154.476562 L 379.234375 298.875 C 379.234375 309.019531 375.203125 318.75 368.03125 325.921875 C 360.859375 333.09375 351.128906 337.125 340.984375 337.125 L 316.738281 337.125 C 306.59375 337.125 296.867188 333.09375 289.691406 325.921875 C 282.519531 318.75 278.488281 309.019531 278.488281 298.875 L 278.488281 154.476562 C 278.488281 144.332031 282.519531 134.605469 289.691406 127.429688 C 296.867188 120.257812 306.59375 116.226562 316.738281 116.226562 Z M 316.738281 116.226562 " clip-rule="nonzero"/></clipPath><clipPath id="ae12b331f0"><path d="M 365.71875 359.765625 L 411.453125 359.765625 L 411.453125 368.917969 L 365.71875 368.917969 Z M 365.71875 359.765625 " clip-rule="nonzero"/></clipPath><clipPath id="daae614d95"><path d="M 365.71875 350.617188 L 411.453125 350.617188 L 411.453125 359.765625 L 365.71875 359.765625 Z M 365.71875 350.617188 " clip-rule="nonzero"/></clipPath><clipPath id="315cc67500"><path d="M 332.96875 368.917969 L 444.199219 368.917969 L 444.199219 378.070312 L 332.96875 378.070312 Z M 332.96875 368.917969 " clip-rule="nonzero"/></clipPath><clipPath id="f7c895bc7b"><path d="M 332.96875 378.070312 L 444.199219 378.070312 L 444.199219 387.21875 L 332.96875 387.21875 Z M 332.96875 378.070312 " clip-rule="nonzero"/></clipPath></defs><g clip-path="url(#011436efaf)"><g clip-path="url(#c68cd84947)"><path fill="#29d5e2" d="M 306.199219 347.316406 L 470.90625 347.316406 L 470.90625 512.023438 L 306.199219 512.023438 Z M 306.199219 347.316406 " fill-opacity="1" fill-rule="nonzero"/></g></g><g clip-path="url(#09c8baeab2)"><path fill="#ffffff" d="M 316.96875 337.125 L 467.253906 337.125 L 467.253906 387.21875 L 316.96875 387.21875 Z M 316.96875 337.125 " fill-opacity="1" fill-rule="nonzero"/></g><g clip-path="url(#e2ea82a19c)"><path fill="#ffc9ff" d="M -27.984375 207.097656 L 833.078125 207.097656 L 833.078125 275.003906 L -27.984375 275.003906 Z M -27.984375 207.097656 " fill-opacity="1" fill-rule="nonzero"/></g><g clip-path="url(#419e322581)"><path fill="#ffc9ff" d="M 325.058594 241.050781 L 332.667969 241.050781 L 332.667969 387.230469 L 325.058594 387.230469 Z M 325.058594 241.050781 " fill-opacity="1" fill-rule="nonzero"/></g><g clip-path="url(#4ee904fec5)"><g clip-path="url(#a4ba76bc2c)"><path fill="#ee03ee" d="M 278.488281 116.226562 L 379.234375 116.226562 L 379.234375 337 L 278.488281 337 Z M 278.488281 116.226562 " fill-opacity="1" fill-rule="nonzero"/></g></g><g clip-path="url(#ae12b331f0)"><path fill="#baf6fa" d="M 365.71875 359.765625 L 411.4375 359.765625 L 411.4375 368.917969 L 365.71875 368.917969 Z M 365.71875 359.765625 " fill-opacity="1" fill-rule="nonzero"/></g><g clip-path="url(#daae614d95)"><path fill="#baf6fa" d="M 365.71875 350.617188 L 411.4375 350.617188 L 411.4375 359.765625 L 365.71875 359.765625 Z M 365.71875 350.617188 " fill-opacity="1" fill-rule="nonzero"/></g><g clip-path="url(#315cc67500)"><path fill="#baf6fa" d="M 332.96875 368.917969 L 444.214844 368.917969 L 444.214844 378.070312 L 332.96875 378.070312 Z M 332.96875 368.917969 " fill-opacity="1" fill-rule="nonzero"/></g><g clip-path="url(#f7c895bc7b)"><path fill="#baf6fa" d="M 332.96875 378.070312 L 444.214844 378.070312 L 444.214844 387.21875 L 332.96875 387.21875 Z M 332.96875 378.070312 " fill-opacity="1" fill-rule="nonzero"/></g></svg>