<svg xmlns="http://www.w3.org/2000/svg" xmlns:xlink="http://www.w3.org/1999/xlink" width="1080" zoomAndPan="magnify" viewBox="0 0 810 809.999993" height="1080" preserveAspectRatio="xMidYMid meet" version="1.0"><defs><clipPath id="084045d188"><path d="M 306.199219 347.316406 L 470.90625 347.316406 L 470.90625 512.023438 L 306.199219 512.023438 Z M 306.199219 347.316406 " clip-rule="nonzero"/></clipPath><clipPath id="11f6594df7"><path d="M 388.554688 347.316406 C 343.070312 347.316406 306.199219 384.1875 306.199219 429.671875 C 306.199219 475.152344 343.070312 512.023438 388.554688 512.023438 C 434.035156 512.023438 470.90625 475.152344 470.90625 429.671875 C 470.90625 384.1875 434.035156 347.316406 388.554688 347.316406 Z M 388.554688 347.316406 " clip-rule="nonzero"/></clipPath><clipPath id="e0f36c4d50"><path d="M 263.371094 92.921875 L 601.621094 92.921875 L 601.621094 433.417969 L 263.371094 433.417969 Z M 263.371094 92.921875 " clip-rule="nonzero"/></clipPath><clipPath id="ea1c6ca25b"><path d="M 301.621094 92.921875 L 563.347656 92.921875 C 573.492188 92.921875 583.222656 96.953125 590.394531 104.125 C 597.566406 111.300781 601.597656 121.027344 601.597656 131.171875 L 601.597656 394.90625 C 601.597656 405.050781 597.566406 414.777344 590.394531 421.953125 C 583.222656 429.125 573.492188 433.15625 563.347656 433.15625 L 301.621094 433.15625 C 291.476562 433.15625 281.746094 429.125 274.574219 421.953125 C 267.402344 414.777344 263.371094 405.050781 263.371094 394.90625 L 263.371094 131.171875 C 263.371094 121.027344 267.402344 111.300781 274.574219 104.125 C 281.746094 96.953125 291.476562 92.921875 301.621094 92.921875 Z M 301.621094 92.921875 " clip-rule="nonzero"/></clipPath><clipPath id="6da4cea5a3"><path d="M 388.554688 426.078125 L 474.292969 426.078125 L 474.292969 444.445312 L 388.554688 444.445312 Z M 388.554688 426.078125 " clip-rule="nonzero"/></clipPath><clipPath id="9792fc6fb9"><path d="M 298.582031 339.699219 L 478.511719 339.699219 L 478.511719 519.628906 L 298.582031 519.628906 Z M 298.582031 339.699219 " clip-rule="nonzero"/></clipPath><clipPath id="a51f8bac25"><path d="M 388.546875 339.699219 C 338.859375 339.699219 298.582031 379.976562 298.582031 429.664062 C 298.582031 479.351562 338.859375 519.628906 388.546875 519.628906 C 438.234375 519.628906 478.511719 479.351562 478.511719 429.664062 C 478.511719 379.976562 438.234375 339.699219 388.546875 339.699219 Z M 388.546875 339.699219 " clip-rule="nonzero"/></clipPath><clipPath id="07774931e5"><path d="M 254.210938 72.914062 L 662.464844 72.914062 L 662.464844 174.359375 L 254.210938 174.359375 Z M 254.210938 72.914062 " clip-rule="nonzero"/></clipPath><clipPath id="0bd30917a4"><path d="M 478.523438 133.425781 L 649.332031 133.425781 L 649.332031 468.769531 L 478.523438 468.769531 Z M 478.523438 133.425781 " clip-rule="nonzero"/></clipPath><clipPath id="64115b2845"><path d="M 377.3125 418.425781 L 399.796875 418.425781 L 399.796875 440.914062 L 377.3125 440.914062 Z M 377.3125 418.425781 " clip-rule="nonzero"/></clipPath><clipPath id="7f7c12bdd0"><path d="M 388.554688 418.425781 C 382.34375 418.425781 377.3125 423.460938 377.3125 429.671875 C 377.3125 435.878906 382.34375 440.914062 388.554688 440.914062 C 394.761719 440.914062 399.796875 435.878906 399.796875 429.671875 C 399.796875 423.460938 394.761719 418.425781 388.554688 418.425781 Z M 388.554688 418.425781 " clip-rule="nonzero"/></clipPath><clipPath id="956711f4b8"><path d="M 255.683594 280.105469 L 266.933594 280.105469 L 266.933594 292.855469 L 255.683594 292.855469 Z M 255.683594 280.105469 " clip-rule="nonzero"/></clipPath><clipPath id="f2311fb04b"><path d="M 266.9375 280.339844 L 278.1875 280.339844 L 278.1875 293.089844 L 266.9375 293.089844 Z M 266.9375 280.339844 " clip-rule="nonzero"/></clipPath><clipPath id="d56b769948"><path d="M 382.0625 238.164062 L 394.8125 238.164062 L 394.8125 249.414062 L 382.0625 249.414062 Z M 382.0625 238.164062 " clip-rule="nonzero"/></clipPath><clipPath id="9b87316186"><path d="M 382.296875 226.914062 L 395.046875 226.914062 L 395.046875 238.164062 L 382.296875 238.164062 Z M 382.296875 226.914062 " clip-rule="nonzero"/></clipPath></defs><g clip-path="url(#084045d188)"><g clip-path="url(#11f6594df7)"><path fill="#ee03ee" d="M 306.199219 347.316406 L 470.90625 347.316406 L 470.90625 512.023438 L 306.199219 512.023438 Z M 306.199219 347.316406 " fill-opacity="1" fill-rule="nonzero"/></g></g><g clip-path="url(#e0f36c4d50)"><g clip-path="url(#ea1c6ca25b)"><path stroke-linecap="butt" transform="matrix(0.75, 0, 0, 0.75, 263.371104, 92.923559)" fill="none" stroke-linejoin="miter" d="M 50.999989 -0.0022447 L 399.968757 -0.0022447 C 413.494799 -0.0022447 426.468758 5.372756 436.031258 14.935256 C 445.593759 24.502965 450.968759 37.471716 450.968759 50.997758 L 450.968759 402.643609 C 450.968759 416.169651 445.593759 429.138402 436.031258 438.706111 C 426.468758 448.268611 413.494799 453.643611 399.968757 453.643611 L 50.999989 453.643611 C 37.473947 453.643611 24.499988 448.268611 14.937487 438.706111 C 5.374987 429.138402 -0.0000134669 416.169651 -0.0000134669 402.643609 L -0.0000134669 50.997758 C -0.0000134669 37.471716 5.374987 24.502965 14.937487 14.935256 C 24.499988 5.372756 37.473947 -0.0022447 50.999989 -0.0022447 Z M 50.999989 -0.0022447 " stroke="#29d5e2" stroke-width="18" stroke-opacity="1" stroke-miterlimit="4"/></g></g><g clip-path="url(#6da4cea5a3)"><path fill="#ee03ee" d="M 388.554688 426.078125 L 474.300781 426.078125 L 474.300781 444.445312 L 388.554688 444.445312 Z M 388.554688 426.078125 " fill-opacity="1" fill-rule="nonzero"/></g><g clip-path="url(#9792fc6fb9)"><g clip-path="url(#a51f8bac25)"><path stroke-linecap="butt" transform="matrix(0.75, 0, 0, 0.75, 298.582664, 339.699377)" fill="none" stroke-linejoin="miter" d="M 119.952288 -0.000211414 C 53.702284 -0.000211414 -0.000843238 53.702916 -0.000843238 119.95292 C -0.000843238 186.202923 53.702284 239.906051 119.952288 239.906051 C 186.202291 239.906051 239.905419 186.202923 239.905419 119.95292 C 239.905419 53.702916 186.202291 -0.000211414 119.952288 -0.000211414 Z M 119.952288 -0.000211414 " stroke="#ffffff" stroke-width="20" stroke-opacity="1" stroke-miterlimit="4"/></g></g><path stroke-linecap="butt" transform="matrix(0.000000001309, 0.75, -0.75, 0.000000001309, 332.51738, 464.221413)" fill="none" stroke-linejoin="miter" d="M 0.00165813 4.502341 L 63.741245 4.502341 " stroke="#ee03ee" stroke-width="9" stroke-opacity="1" stroke-miterlimit="4"/><path stroke-linecap="butt" transform="matrix(0.000000001309, 0.75, -0.75, 0.000000001309, 451.334861, 464.221413)" fill="none" stroke-linejoin="miter" d="M 0.00165813 4.498565 L 63.741245 4.498565 " stroke="#ee03ee" stroke-width="9" stroke-opacity="1" stroke-miterlimit="4"/><g clip-path="url(#07774931e5)"><path fill="#ffffff" d="M 254.210938 72.914062 L 662.371094 72.914062 L 662.371094 174.359375 L 254.210938 174.359375 Z M 254.210938 72.914062 " fill-opacity="1" fill-rule="nonzero"/></g><g clip-path="url(#0bd30917a4)"><path fill="#ffffff" d="M 478.523438 133.425781 L 649.332031 133.425781 L 649.332031 469.035156 L 478.523438 469.035156 Z M 478.523438 133.425781 " fill-opacity="1" fill-rule="nonzero"/></g><g clip-path="url(#64115b2845)"><g clip-path="url(#7f7c12bdd0)"><path fill="#29d5e2" d="M 377.3125 418.425781 L 399.796875 418.425781 L 399.796875 440.914062 L 377.3125 440.914062 Z M 377.3125 418.425781 " fill-opacity="1" fill-rule="nonzero"/></g></g><g clip-path="url(#956711f4b8)"><path fill="#29d5e2" d="M 255.6875 280.105469 L 266.933594 286.597656 L 255.6875 293.089844 Z M 255.6875 280.105469 " fill-opacity="1" fill-rule="nonzero"/></g><g clip-path="url(#f2311fb04b)"><path fill="#29d5e2" d="M 278.183594 293.089844 L 266.9375 286.597656 L 278.183594 280.105469 Z M 278.183594 293.089844 " fill-opacity="1" fill-rule="nonzero"/></g><path stroke-linecap="butt" transform="matrix(0.75, -0.000000000000000279, 0.000000000000000279, 0.75, 265.342255, 234.788447)" fill="none" stroke-linejoin="miter" d="M 0.0019934 4.500821 L 328.56451 4.500821 " stroke="#29d5e2" stroke-width="9" stroke-opacity="1" stroke-miterlimit="4"/><g clip-path="url(#d56b769948)"><path fill="#29d5e2" d="M 382.0625 249.410156 L 388.554688 238.164062 L 395.046875 249.410156 Z M 382.0625 249.410156 " fill-opacity="1" fill-rule="nonzero"/></g><g clip-path="url(#9b87316186)"><path fill="#29d5e2" d="M 395.046875 226.914062 L 388.554688 238.160156 L 382.0625 226.914062 Z M 395.046875 226.914062 " fill-opacity="1" fill-rule="nonzero"/></g><path stroke-linecap="butt" transform="matrix(0.749995, 0.00258453, -0.00258453, 0.749995, 298.605927, 426.192191)" fill="none" stroke-linejoin="miter" d="M -0.000732183 4.498984 L 84.656026 4.49892 " stroke="#29d5e2" stroke-width="9" stroke-opacity="1" stroke-miterlimit="4"/></svg>