<svg xmlns="http://www.w3.org/2000/svg" xmlns:xlink="http://www.w3.org/1999/xlink" width="1080" zoomAndPan="magnify" viewBox="0 0 810 809.999993" height="1080" preserveAspectRatio="xMidYMid meet" version="1.0"><defs><clipPath id="b066ab80b8"><path d="M 306.199219 347.316406 L 470.90625 347.316406 L 470.90625 512.023438 L 306.199219 512.023438 Z M 306.199219 347.316406 " clip-rule="nonzero"/></clipPath><clipPath id="b05caf195a"><path d="M 388.554688 347.316406 C 343.070312 347.316406 306.199219 384.1875 306.199219 429.671875 C 306.199219 475.152344 343.070312 512.023438 388.554688 512.023438 C 434.035156 512.023438 470.90625 475.152344 470.90625 429.671875 C 470.90625 384.1875 434.035156 347.316406 388.554688 347.316406 Z M 388.554688 347.316406 " clip-rule="nonzero"/></clipPath><clipPath id="5f0977671e"><path d="M 311 311 L 459 311 L 459 582 L 311 582 Z M 311 311 " clip-rule="nonzero"/></clipPath><clipPath id="b19a0ec782"><path d="M 311.609375 566.710938 L 426.824219 311.660156 L 458.722656 326.066406 L 343.507812 581.121094 Z M 311.609375 566.710938 " clip-rule="nonzero"/></clipPath><clipPath id="262ac98ec1"><path d="M 311.609375 566.710938 L 426.800781 311.71875 L 458.695312 326.125 L 343.507812 581.121094 Z M 311.609375 566.710938 " clip-rule="nonzero"/></clipPath><clipPath id="1c4949edc6"><path d="M 343 311 L 491 311 L 491 582 L 343 582 Z M 343 311 " clip-rule="nonzero"/></clipPath><clipPath id="49f6eb971b"><path d="M 375.398438 595.523438 L 311.601562 566.703125 L 426.875 311.527344 L 490.671875 340.347656 Z M 375.398438 595.523438 " clip-rule="nonzero"/></clipPath><clipPath id="0e47e463d4"><path d="M 343.5 581.113281 L 426.792969 311.710938 L 490.585938 340.527344 Z M 343.5 581.113281 " clip-rule="nonzero"/></clipPath><clipPath id="848feaa08e"><path d="M 419 257 L 529 257 L 529 348 L 419 348 Z M 419 257 " clip-rule="nonzero"/></clipPath><clipPath id="58633bb6e8"><path d="M 419.550781 308.445312 L 442.785156 257.015625 L 528.960938 295.949219 L 505.730469 347.375 Z M 419.550781 308.445312 " clip-rule="nonzero"/></clipPath><clipPath id="47110a2d5f"><path d="M 419.550781 308.445312 L 442.785156 257.015625 L 528.839844 295.890625 L 505.609375 347.320312 Z M 419.550781 308.445312 " clip-rule="nonzero"/></clipPath><clipPath id="d1811b1bea"><path d="M 407 281 L 506 281 L 506 348 L 407 348 Z M 407 281 " clip-rule="nonzero"/></clipPath><clipPath id="fc7b54faad"><path d="M 517.917969 320.066406 L 493.292969 374.578125 L 407.054688 335.621094 L 431.679688 281.109375 Z M 517.917969 320.066406 " clip-rule="nonzero"/></clipPath><clipPath id="16239db61b"><path d="M 505.605469 347.320312 L 407.238281 335.703125 L 431.863281 281.191406 Z M 505.605469 347.320312 " clip-rule="nonzero"/></clipPath><clipPath id="b5a652a860"><path d="M 445 279 L 505 279 L 505 322 L 445 322 Z M 445 279 " clip-rule="nonzero"/></clipPath><clipPath id="9ac0348242"><path d="M 441.121094 300.140625 L 452.207031 275.605469 L 508.746094 301.148438 L 497.664062 325.679688 Z M 441.121094 300.140625 " clip-rule="nonzero"/></clipPath><clipPath id="6a9336208b"><path d="M 446.664062 287.871094 C 448.132812 284.621094 450.835938 282.082031 454.175781 280.820312 C 457.515625 279.5625 461.21875 279.679688 464.472656 281.148438 L 496.398438 295.570312 C 499.652344 297.039062 502.1875 299.742188 503.449219 303.082031 C 504.710938 306.417969 504.59375 310.125 503.121094 313.378906 C 501.652344 316.628906 498.949219 319.167969 495.613281 320.429688 C 492.273438 321.6875 488.566406 321.570312 485.316406 320.101562 L 453.390625 305.679688 C 450.136719 304.210938 447.601562 301.507812 446.339844 298.167969 C 445.078125 294.828125 445.195312 291.125 446.664062 287.871094 Z M 446.664062 287.871094 " clip-rule="nonzero"/></clipPath><clipPath id="1a0df2535d"><path d="M 285 300 L 298 300 L 298 318 L 285 318 Z M 285 300 " clip-rule="nonzero"/></clipPath><clipPath id="0384c4a0c4"><path d="M 281.15625 303.378906 L 290.15625 298.46875 L 297.847656 312.566406 L 288.847656 317.476562 Z M 281.15625 303.378906 " clip-rule="nonzero"/></clipPath><clipPath id="7a65928354"><path d="M 285.65625 300.921875 L 297.84375 312.5625 L 288.84375 317.46875 Z M 285.65625 300.921875 " clip-rule="nonzero"/></clipPath><clipPath id="b116400a81"><path d="M 338 416 L 434 416 L 434 553 L 338 553 Z M 338 416 " clip-rule="nonzero"/></clipPath><clipPath id="502c2f80dc"><path d="M 329.503906 431.378906 L 371.589844 408.425781 L 442.242188 537.96875 L 400.160156 560.921875 Z M 329.503906 431.378906 " clip-rule="nonzero"/></clipPath><clipPath id="9017b6c913"><path d="M 350.546875 419.902344 C 362.167969 413.5625 376.726562 417.84375 383.066406 429.46875 L 430.738281 516.871094 C 437.074219 528.492188 432.792969 543.050781 421.171875 549.390625 C 409.550781 555.726562 394.992188 551.445312 388.652344 539.824219 L 340.980469 452.421875 C 334.644531 440.800781 338.925781 426.238281 350.546875 419.902344 Z M 350.546875 419.902344 " clip-rule="nonzero"/></clipPath></defs><g clip-path="url(#b066ab80b8)"><g clip-path="url(#b05caf195a)"><path fill="#29d5e2" d="M 306.199219 347.316406 L 470.90625 347.316406 L 470.90625 512.023438 L 306.199219 512.023438 Z M 306.199219 347.316406 " fill-opacity="1" fill-rule="nonzero"/></g></g><g clip-path="url(#5f0977671e)"><g clip-path="url(#b19a0ec782)"><g clip-path="url(#262ac98ec1)"><path fill="#ee03ee" d="M 311.609375 566.710938 L 426.824219 311.660156 L 458.722656 326.066406 L 343.507812 581.121094 Z M 311.609375 566.710938 " fill-opacity="1" fill-rule="nonzero"/></g></g></g><g clip-path="url(#1c4949edc6)"><g clip-path="url(#49f6eb971b)"><g clip-path="url(#0e47e463d4)"><path fill="#ee03ee" d="M 375.398438 595.523438 L 311.601562 566.703125 L 426.761719 311.777344 L 490.558594 340.59375 Z M 375.398438 595.523438 " fill-opacity="1" fill-rule="nonzero"/></g></g></g><g clip-path="url(#848feaa08e)"><g clip-path="url(#58633bb6e8)"><g clip-path="url(#47110a2d5f)"><path fill="#ffc9ff" d="M 419.550781 308.445312 L 442.785156 257.015625 L 528.761719 295.855469 L 505.53125 347.28125 Z M 419.550781 308.445312 " fill-opacity="1" fill-rule="nonzero"/></g></g></g><g clip-path="url(#d1811b1bea)"><g clip-path="url(#fc7b54faad)"><g clip-path="url(#16239db61b)"><path fill="#ffc9ff" d="M 517.917969 320.066406 L 493.292969 374.578125 L 407.269531 335.714844 L 431.894531 281.203125 Z M 517.917969 320.066406 " fill-opacity="1" fill-rule="nonzero"/></g></g></g><g clip-path="url(#b5a652a860)"><g clip-path="url(#9ac0348242)"><g clip-path="url(#6a9336208b)"><path fill="#ffffff" d="M 441.121094 300.140625 L 452.207031 275.605469 L 508.652344 301.105469 L 497.570312 325.636719 Z M 441.121094 300.140625 " fill-opacity="1" fill-rule="nonzero"/></g></g></g><path stroke-linecap="butt" transform="matrix(-0.359115, -0.658435, 0.658435, -0.359115, 372.57429, 471.258284)" fill="none" stroke-linejoin="miter" d="M -0.00205158 6.999274 L 233.475367 7.001403 " stroke="#ee03ee" stroke-width="14" stroke-opacity="1" stroke-miterlimit="4"/><g clip-path="url(#1a0df2535d)"><g clip-path="url(#0384c4a0c4)"><g clip-path="url(#7a65928354)"><path fill="#ee03ee" d="M 281.15625 303.378906 L 290.15625 298.46875 L 297.847656 312.566406 L 288.847656 317.476562 Z M 281.15625 303.378906 " fill-opacity="1" fill-rule="nonzero"/></g></g></g><g clip-path="url(#b116400a81)"><g clip-path="url(#502c2f80dc)"><g clip-path="url(#9017b6c913)"><path fill="#ffc9ff" d="M 329.503906 431.378906 L 371.589844 408.425781 L 442.242188 537.96875 L 400.160156 560.921875 Z M 329.503906 431.378906 " fill-opacity="1" fill-rule="nonzero"/></g></g></g></svg>