<svg xmlns="http://www.w3.org/2000/svg" xmlns:xlink="http://www.w3.org/1999/xlink" width="1080" zoomAndPan="magnify" viewBox="0 0 810 809.999993" height="1080" preserveAspectRatio="xMidYMid meet" version="1.0"><defs><clipPath id="16133b2e4b"><path d="M 322.644531 322.644531 L 487.355469 322.644531 L 487.355469 487.355469 L 322.644531 487.355469 Z M 322.644531 322.644531 " clip-rule="nonzero"/></clipPath><clipPath id="0664545370"><path d="M 405 322.644531 C 359.515625 322.644531 322.644531 359.515625 322.644531 405 C 322.644531 450.484375 359.515625 487.355469 405 487.355469 C 450.484375 487.355469 487.355469 450.484375 487.355469 405 C 487.355469 359.515625 450.484375 322.644531 405 322.644531 Z M 405 322.644531 " clip-rule="nonzero"/></clipPath></defs><g clip-path="url(#16133b2e4b)"><g clip-path="url(#0664545370)"><path fill="#ee03ee" d="M 322.644531 322.644531 L 487.355469 322.644531 L 487.355469 487.355469 L 322.644531 487.355469 Z M 322.644531 322.644531 " fill-opacity="1" fill-rule="nonzero"/></g></g><path stroke-linecap="butt" transform="matrix(0.13076, -0.738513, 0.738513, 0.13076, 376.105326, 608.942221)" fill="none" stroke-linejoin="miter" d="M -0.000556039 4.501523 L 825.353543 4.499861 " stroke="#29d5e2" stroke-width="9" stroke-opacity="1" stroke-miterlimit="4"/><path stroke-linecap="butt" transform="matrix(-0.119137, -0.740477, 0.740477, -0.119137, 424.740222, 611.117101)" fill="none" stroke-linejoin="miter" d="M -0.00177129 4.502213 L 884.943714 4.497401 " stroke="#29d5e2" stroke-width="9" stroke-opacity="1" stroke-miterlimit="4"/></svg>