<?xml version="1.0" encoding="UTF-8"?>
<svg id="Vrstva_1" xmlns="http://www.w3.org/2000/svg" viewBox="0 0 84.7 26.26">
  <defs>
    <style>
      .cls-1 {
        fill: #fff;
      }
    </style>
  </defs>
  <path class="cls-1" d="M0,24.94c0-.24.05-.46.17-.65.12-.22.29-.36.5-.48.19-.12.41-.19.65-.19h11.52c.24,0,.46.07.65.19.22.12.36.26.48.48.14.19.19.41.19.65s-.05.46-.19.67c-.12.19-.26.36-.48.48-.19.1-.41.17-.65.17H1.32c-.24,0-.46-.07-.65-.19-.22-.12-.38-.26-.5-.48-.12-.19-.17-.41-.17-.65ZM7.1,19.32c-.24,0-.46-.07-.65-.19-.22-.12-.36-.26-.5-.48-.12-.19-.17-.41-.17-.65V2.78h-3.65c-.24,0-.46-.07-.65-.19-.22-.12-.38-.29-.5-.48s-.17-.41-.17-.65.05-.46.17-.65c.12-.22.29-.38.5-.5.19-.12.41-.17.65-.17h9.89c.22,0,.46.05.65.17s.36.29.48.5c.12.19.19.41.19.65s-.07.46-.19.65c-.12.22-.29.36-.48.48s-.43.19-.65.19h-3.6v15.22c0,.24-.07.46-.19.65-.1.22-.26.38-.48.5-.19.1-.41.17-.65.17ZM17.93,24.94c0-.24.07-.46.19-.65.12-.22.29-.36.48-.48.22-.12.43-.19.65-.19h11.52c.24,0,.46.07.67.19.19.12.36.26.48.48.12.19.19.41.19.65s-.07.46-.19.67c-.12.19-.29.36-.48.48-.22.1-.43.17-.67.17h-11.52c-.22,0-.43-.07-.65-.19-.19-.12-.36-.26-.48-.48-.12-.19-.19-.41-.19-.65ZM19.49,1.32c0-.24.05-.48.17-.67s.29-.36.48-.48.41-.17.65-.17.48.05.67.17c.22.12.36.29.48.48s.19.43.19.67v12.55c0,.6.12,1.1.34,1.56.24.43.58.77,1.03,1.01.43.24.94.36,1.54.36s1.08-.12,1.51-.36.77-.58,1.01-1.03c.24-.43.36-.94.36-1.54V1.32c0-.24.07-.48.19-.67.1-.19.26-.36.48-.48.19-.12.41-.17.65-.17.26,0,.48.05.67.17.22.12.36.29.48.48s.19.43.19.67v12.55c0,1.03-.24,1.99-.74,2.83-.48.86-1.15,1.54-1.99,2.02-.84.48-1.78.72-2.81.72s-1.99-.24-2.83-.72c-.86-.48-1.51-1.15-1.99-1.99-.48-.86-.72-1.8-.72-2.86V1.32ZM35.88,24.94c0-.24.05-.46.17-.65.12-.22.29-.36.5-.48.19-.12.41-.19.65-.19h11.76c.24,0,.46.07.65.19.22.12.36.26.48.48.12.19.19.41.19.65s-.07.46-.19.67c-.12.19-.26.36-.48.48-.19.1-.41.17-.65.17h-11.76c-.24,0-.46-.07-.65-.19-.22-.12-.38-.26-.5-.48-.12-.19-.17-.41-.17-.65ZM38.38,1.32c0-.24.07-.46.19-.67.12-.19.26-.36.48-.48.19-.12.41-.17.65-.17s.46.05.65.17c.22.12.38.29.5.48.12.22.17.43.17.67v15.22h6.31c.24,0,.46.05.65.19.22.12.36.26.48.48.14.19.19.41.19.65s-.05.46-.19.65c-.12.22-.26.38-.48.5-.19.12-.41.17-.65.17h-7.63c-.24,0-.46-.05-.65-.17-.22-.12-.36-.29-.48-.5-.12-.19-.19-.41-.19-.65V1.32Z"/>
  <g>
    <path class="cls-1" d="M53.6,17.72L59.56,1.15C59.8.51,60.16,0,60.89,0s1.11.49,1.35,1.17l5.97,16.55c.27.75-.23,1.45-1.03,1.45h-12.59c-.79,0-1.27-.71-1-1.45ZM64.97,16.54l-4.08-11.35-4.07,11.35h8.15Z"/>
    <path class="cls-1" d="M73.61,17.86V1.47c0-.73.6-1.33,1.33-1.33h4.24c3.29,0,5.52,2.36,5.52,5.43,0,1.73-.81,3.35-1.92,4.08,1.13.8,1.92,2.39,1.92,4.13,0,3.08-2.25,5.4-5.52,5.4h-4.24c-.73,0-1.33-.6-1.33-1.32ZM79.18,8.34c1.64,0,2.88-1.16,2.88-2.77,0-1.72-1.12-2.79-2.88-2.79h-2.93v5.56h2.93ZM79.18,16.54c1.76,0,2.88-1.05,2.88-2.76s-1.21-2.8-2.88-2.8h-2.93v5.56h2.93Z"/>
  </g>
</svg>